<?xml version="1.0" encoding="UTF-8"?>
<svg xmlns="http://www.w3.org/2000/svg" width="1024" height="1024" viewBox="0 0 1024 1024">
  <defs>
    <filter id="cardLift" x="-10%" y="-8%" width="120%" height="130%">
      <feDropShadow dx="0" dy="10" stdDeviation="16" flood-color="#1a0a3a" flood-opacity="0.28"/>
      <feDropShadow dx="0" dy="3" stdDeviation="4" flood-color="#1a0a3a" flood-opacity="0.12"/>
    </filter>
    <filter id="itemLift" x="-5%" y="-15%" width="110%" height="145%">
      <feDropShadow dx="0" dy="3" stdDeviation="5" flood-color="#6D28D9" flood-opacity="0.35"/>
    </filter>
    <filter id="cursorLift" x="-25%" y="-25%" width="160%" height="170%">
      <feDropShadow dx="3" dy="6" stdDeviation="8" flood-color="#1a0a3a" flood-opacity="0.35"/>
    </filter>
    <linearGradient id="bgGrad" x1="0.1" y1="0" x2="0.9" y2="1">
      <stop offset="0%" stop-color="#6366F1"/>
      <stop offset="50%" stop-color="#7C3AED"/>
      <stop offset="100%" stop-color="#A855F7"/>
    </linearGradient>
    <linearGradient id="bgSheen" x1="0" y1="0" x2="0" y2="1">
      <stop offset="0%" stop-color="#FFFFFF" stop-opacity="0.18"/>
      <stop offset="30%" stop-color="#FFFFFF" stop-opacity="0.02"/>
      <stop offset="100%" stop-color="#000000" stop-opacity="0.08"/>
    </linearGradient>
    <linearGradient id="cardFace" x1="0" y1="0" x2="0" y2="1">
      <stop offset="0%" stop-color="#FFFFFF"/>
      <stop offset="60%" stop-color="#FAFAFE"/>
      <stop offset="100%" stop-color="#EEEAFA"/>
    </linearGradient>
    <linearGradient id="cardEdge" x1="0" y1="0" x2="0" y2="1">
      <stop offset="0%" stop-color="#FFFFFF" stop-opacity="0.9"/>
      <stop offset="6%" stop-color="#FFFFFF" stop-opacity="0"/>
    </linearGradient>
    <linearGradient id="cardReflect" x1="0" y1="1" x2="0" y2="0">
      <stop offset="0%" stop-color="#FFFFFF" stop-opacity="0.12"/>
      <stop offset="15%" stop-color="#FFFFFF" stop-opacity="0"/>
    </linearGradient>
    <linearGradient id="accentGrad" x1="0" y1="0" x2="1" y2="0.3">
      <stop offset="0%" stop-color="#8B5CF6"/>
      <stop offset="100%" stop-color="#A78BFA"/>
    </linearGradient>
    <linearGradient id="accentSheen" x1="0" y1="0" x2="0" y2="1">
      <stop offset="0%" stop-color="#FFFFFF" stop-opacity="0.25"/>
      <stop offset="40%" stop-color="#FFFFFF" stop-opacity="0"/>
    </linearGradient>
    <linearGradient id="iconTile" x1="0" y1="0" x2="0" y2="1">
      <stop offset="0%" stop-color="#F0EDFF"/>
      <stop offset="100%" stop-color="#DDD6FE"/>
    </linearGradient>
    <clipPath id="iconClip">
      <rect x="100" y="100" width="824" height="824" rx="185" ry="185"/>
    </clipPath>
  </defs>
  <g clip-path="url(#iconClip)">
    <rect x="100" y="100" width="824" height="824" fill="url(#bgGrad)"/>
    <rect x="100" y="100" width="824" height="824" fill="url(#bgSheen)"/>
    <circle cx="380" cy="320" r="260" fill="#FFFFFF" opacity="0.04"/>
    <circle cx="700" cy="720" r="200" fill="#A855F7" opacity="0.05"/>
    <g filter="url(#cardLift)">
      <rect x="342" y="302" width="340" height="420" rx="22" ry="22" fill="url(#cardFace)"/>
    </g>
    <rect x="342" y="302" width="340" height="420" rx="22" ry="22" fill="url(#cardEdge)"/>
    <rect x="342" y="302" width="340" height="420" rx="22" ry="22" fill="url(#cardReflect)"/>
    <rect x="342" y="302" width="340" height="420" rx="22" ry="22" fill="none" stroke="#FFFFFF" stroke-width="0.8" stroke-opacity="0.2"/>
    <g filter="url(#itemLift)">
      <rect x="360" y="326" width="304" height="50" rx="10" ry="10" fill="url(#accentGrad)"/>
    </g>
    <rect x="360" y="326" width="304" height="50" rx="10" ry="10" fill="url(#accentSheen)"/>
    <rect x="375" y="337" width="28" height="28" rx="6" fill="#FFFFFF" opacity="0.3"/>
    <rect x="413" y="340" width="90" height="9" rx="4.5" fill="#FFFFFF" opacity="0.92"/>
    <rect x="413" y="355" width="55" height="7" rx="3.5" fill="#FFFFFF" opacity="0.4"/>
    <path d="M642,348 l7,5 l-7,5" stroke="#FFFFFF" stroke-width="2" stroke-linecap="round" stroke-linejoin="round" fill="none" opacity="0.7"/>
    <line x1="372" y1="390" x2="670" y2="390" stroke="#E8E2F5" stroke-width="0.8"/>
    <rect x="375" y="404" width="28" height="28" rx="6" fill="url(#iconTile)"/>
    <rect x="380" y="409" width="18" height="18" rx="4" fill="#C4B5FD"/>
    <rect x="413" y="408" width="110" height="9" rx="4.5" fill="#6B6190"/>
    <rect x="413" y="423" width="65" height="7" rx="3.5" fill="#B8AFD0"/>
    <rect x="612" y="410" width="42" height="18" rx="4" fill="#F0ECFA"/>
    <rect x="618" y="415" width="30" height="8" rx="2" fill="#C4B5FD" opacity="0.55"/>
    <rect x="375" y="448" width="28" height="28" rx="6" fill="url(#iconTile)"/>
    <rect x="380" y="453" width="18" height="18" rx="4" fill="#C4B5FD"/>
    <rect x="413" y="452" width="82" height="9" rx="4.5" fill="#6B6190"/>
    <rect x="413" y="467" width="50" height="7" rx="3.5" fill="#B8AFD0"/>
    <rect x="612" y="454" width="42" height="18" rx="4" fill="#F0ECFA"/>
    <rect x="618" y="459" width="30" height="8" rx="2" fill="#C4B5FD" opacity="0.55"/>
    <line x1="372" y1="490" x2="670" y2="490" stroke="#E8E2F5" stroke-width="0.8"/>
    <rect x="375" y="504" width="28" height="28" rx="6" fill="url(#iconTile)"/>
    <rect x="381" y="510" width="12" height="12" rx="2" stroke="#9B8FE8" stroke-width="1.3" fill="none"/>
    <rect x="384" y="513" width="12" height="12" rx="2" stroke="#9B8FE8" stroke-width="1.3" fill="url(#iconTile)"/>
    <rect x="413" y="508" width="100" height="9" rx="4.5" fill="#6B6190"/>
    <rect x="413" y="523" width="70" height="7" rx="3.5" fill="#B8AFD0"/>
    <rect x="375" y="548" width="28" height="28" rx="6" fill="url(#iconTile)"/>
    <rect x="380" y="553" width="18" height="18" rx="4" fill="#C4B5FD"/>
    <rect x="413" y="552" width="88" height="9" rx="4.5" fill="#6B6190"/>
    <rect x="413" y="567" width="55" height="7" rx="3.5" fill="#B8AFD0"/>
    <line x1="372" y1="590" x2="670" y2="590" stroke="#E8E2F5" stroke-width="0.8"/>
    <rect x="375" y="604" width="28" height="28" rx="14" fill="url(#iconTile)"/>
    <path d="M385,618 h8 M389,614 v8" stroke="#9B8FE8" stroke-width="2" stroke-linecap="round"/>
    <rect x="413" y="612" width="60" height="9" rx="4.5" fill="#6B6190"/>
    <rect x="413" y="627" width="42" height="7" rx="3.5" fill="#B8AFD0"/>
    <g filter="url(#cursorLift)" transform="translate(610, 460)">
      <path d="M0,0 L0,120 L34,92 L62,148 L82,138 L54,84 L94,78 Z" fill="#FFFFFF" stroke="#2D1B69" stroke-width="3" stroke-linejoin="round"/>
      <path d="M8,18 L8,100 L36,78 L60,130 L72,124 L46,76 L80,72 Z" fill="#F0EEFF" opacity="0.35"/>
    </g>
  </g>
</svg>